#!OML:ASF I:\Actors\actors\Patient Classification 1\Patient 1\Session 1\Subject1.ASF
:FULLY-SPECIFIED
:DEGREES
1233
root -0.0429597 16.6468 8.80611 79.1255 32.6564 -4.69275
lowerback 49.6476 1.82325 6.67494
upperback 2.03332 3.9937 -7.61383
thorax -17.9853 0.874722 -14.1602
lowerneck -8.47604 -7.13192 6.09872
upperneck -22.2534 -8.68998 9.77956
head -5.24979 -5.45354 2.26326
rclavicle -1.90833e-014 -2.38542e-015
rhumerus 72.8159 -9.63051 -47.8979
rradius 51.416
rwrist 39.3918
rhand -29.7446 -47.3738
rfingers 7.12502
rthumb -3.07085 -1157.33
lclavicle -1.90833e-014 -2.38542e-015
lhumerus -115.328 184.638 -133.827
lradius 66.2071
lwrist 11.1565
lhand -51.6482 -53.4691
lfingers 7.12502
lthumb -24.1702 -24.972
rfemur -76.2898 -8.78783 69.5281
rtibia -2.99428
rfoot -4.00541 14.5158
rtoes 1.93212
lfemur -92.2213 6.93428 -9.46547
ltibia 7.23689
lfoot 7.01195 -9.61903
ltoes 34.7989
1234
root -0.0230021 16.6489 8.81318 78.9224 32.9133 -4.88968
lowerback 49.4265 1.89864 5.76905
upperback 2.11806 3.72995 -7.05481
thorax -17.9633 0.862507 -12.8807
lowerneck -8.59038 -6.81339 5.11107
upperneck -22.0648 -8.18969 9.94494
head -5.11195 -5.11226 2.44316
rclavicle 7.95139e-015 -1.27222e-014
rhumerus 71.4075 -8.24146 -46.5165
rradius 55.0961
rwrist 39.8606
rhand -30.9605 -48.9215
rfingers 7.12502
rthumb -4.24497 -1158.86
lclavicle 7.95139e-015 -1.27222e-014
lhumerus -116.849 183.753 -133.459
lradius 66.4573
lwrist 10.9851
lhand -51.5603 -53.8546
lfingers 7.12502
lthumb -24.0859 -25.3463
rfemur -76.0796 -8.79803 69.498
rtibia -2.87415
rfoot -4.16781 14.2711
rtoes 2.12531
lfemur -92.0553 7.02653 -9.25095
ltibia 7.15924
lfoot 7.17482 -9.5813
ltoes 35.3293
1235
root -0.00393884 16.6529 8.81783 78.7468 33.1806 -5.01109
lowerback 49.2523 1.93135 4.98552
upperback 2.18711 3.49189 -6.46716
thorax -17.9456 0.849854 -11.6555
lowerneck -8.67837 -6.5349 4.14851
upperneck -21.9829 -7.75387 10.0073
head -5.02387 -4.80553 2.59773
rclavicle 9.85972e-014 5.08889e-014
rhumerus 70.2981 -6.85387 -45.4071
rradius 57.591
rwrist 40.8278
rhand -31.8524 -51.2944
rfingers 7.12502
rthumb -5.10625 -1161.21
lclavicle 9.85972e-014 5.08889e-014
lhumerus -118.401 182.85 -133.098
lradius 66.8755
lwrist 11.1667
lhand -51.5277 -54.3424
lfingers 7.12502
lthumb -24.0547 -25.83
rfemur -75.8919 -8.85147 69.4736
rtibia -2.81664
rfoot -4.31299 13.9858
rtoes 2.17081
lfemur -91.9255 7.06429 -9.04426
ltibia 7.13461
lfoot 7.32717 -9.55088
ltoes 35.9007
1236
root 0.0145676 16.6587 8.81873 78.597 33.4083 -5.106
lowerback 49.1052 1.96377 4.34451
upperback 2.23041 3.31495 -5.94476
thorax -17.937 0.845477 -10.6224
lowerneck -8.72775 -6.33421 3.4885
upperneck -21.9665 -7.46767 9.8753
head -4.98889 -4.59321 2.65347
rclavicle 9.06458e-014 0
rhumerus 69.4353 -5.60349 -44.6648
rradius 58.3876
rwrist 40.988
rhand -33.9978 -52.5313
rfingers 7.12502
rthumb -7.17749 -1162.39
lclavicle 9.06458e-014 0
lhumerus -120.34 182.046 -133.34
lradius 68.5441
lwrist 11.9
lhand -51.493 -54.0449
lfingers 7.12502
lthumb -24.0214 -25.5281
rfemur -75.7127 -8.91171 69.4054
rtibia -2.83564
rfoot -4.36926 13.6833
rtoes 2.21747
lfemur -91.9148 7.13415 -8.89126
ltibia 7.28508
lfoot 7.36992 -9.64292
ltoes 36.6252
1237
root 0.0324615 16.6646 8.81645 78.4482 33.5789 -5.21595
lowerback 48.9654 1.94442 3.82652
upperback 2.25965 3.11095 -5.56271
thorax -17.9395 0.815742 -9.81084
lowerneck -8.82925 -6.1126 2.99266
upperneck -21.8888 -7.15406 9.78054
head -4.93611 -4.3786 2.6919
rclavicle -1.74931e-014 -5.88403e-014
rhumerus 69.0634 -4.6139 -45.2594
rradius 57.3298
rwrist 43.5148
rhand -35.7117 -53.1874
rfingers 7.12502
rthumb -8.83164 -1162.98
lclavicle -1.74931e-014 -5.88403e-014
lhumerus -121.289 181.412 -132.992
lradius 68.0666
lwrist 11.7701
lhand -51.4017 -54.4685
lfingers 7.12502
lthumb -23.9339 -25.9402
rfemur -75.5231 -8.96522 69.2765
rtibia -2.87095
rfoot -4.31587 13.4082
rtoes 1.90152
lfemur -91.979 7.23284 -8.79854
ltibia 7.54049
lfoot 7.42263 -9.77079
ltoes 37.4739
1238
root 0.0489705 16.6706 8.81182 78.3207 33.7631 -5.2909
lowerback 48.846 1.77133 3.53014
upperback 2.28417 2.80785 -5.33964
thorax -17.952 0.727015 -9.25011
lowerneck -9.0821 -5.91154 2.47658
upperneck -21.6851 -6.84409 9.91263
head -4.81025 -4.16918 2.79597
rclavicle 1.27222e-013 2.70347e-014
rhumerus 69.0059 -3.78769 -46.555
rradius 55.2687
rwrist 46.0385
rhand -36.6158 -53.2612
rfingers 7.12502
rthumb -9.70402 -1163.02
lclavicle 1.27222e-013 2.70347e-014
lhumerus -122.503 180.794 -133.186
lradius 68.3444
lwrist 11.6365
lhand -51.3074 -54.3049
lfingers 7.12502
lthumb -23.8435 -25.7647
rfemur -75.3403 -9.05153 69.1534
rtibia -2.96003
rfoot -4.27081 13.1749
rtoes 0.900097
lfemur -92.0991 7.30759 -8.70494
ltibia 7.83691
lfoot 7.56547 -9.86993
ltoes 38.5289
1239
root 0.0631418 16.6767 8.80615 78.207 33.9236 -5.34191
lowerback 48.7182 1.68119 3.30724
upperback 2.34959 2.65082 -5.06445
thorax -17.8819 0.696414 -8.73318
lowerneck -9.46857 -5.84009 1.90514
upperneck -21.495 -6.73108 9.99738
head -4.66238 -4.05223 2.89343
rclavicle 5.40694e-014 -9.14409e-014
rhumerus 69.0327 -3.37982 -47.7292
rradius 52.5001
rwrist 47.7427
rhand -37.0867 -51.9058
rfingers 7.12502
rthumb -10.1583 -1161.64
lclavicle 5.40694e-014 -9.14409e-014
lhumerus -123.869 180.336 -133.482
lradius 69.4262
lwrist 11.5693
lhand -51.3119 -54.1504
lfingers 7.12502
lthumb -23.8478 -25.6108
rfemur -75.1571 -9.16113 68.9992
rtibia -3.11184
rfoot -4.23324 12.9945
rtoes 0.345576
lfemur -92.2255 7.38335 -8.63854
ltibia 8.12571
lfoot 7.7995 -9.90614
ltoes 39.8712
1240
root 0.076054 16.6813 8.79833 78.083 34.0493 -5.418
lowerback 47.7761 1.69789 3.22226
upperback 3.46702 2.66627 -4.66732
thorax -17.969 0.675409 -8.44408
lowerneck -9.71385 -5.81958 1.49422
upperneck -21.5369 -6.69377 9.95911
head -4.62118 -3.99218 2.94084
rclavicle -5.88403e-014 -6.63941e-014
rhumerus 69.1277 -3.28804 -48.6441
rradius 49.1075
rwrist 47.9439
rhand -36.752 -49.6966
rfingers 7.12502
rthumb -9.8354 -1159.45
lclavicle -5.88403e-014 -6.63941e-014
lhumerus -125.365 180.07 -134.003
lradius 71.3163
lwrist 11.7047
lhand -50.8317 -54.5418
lfingers 7.12502
lthumb -23.3872 -25.9428
rfemur -75.046 -9.22134 68.8238
rtibia -3.14458
rfoot -4.18757 12.9092
rtoes 0.615096
lfemur -92.3574 7.48819 -8.60121
ltibia 8.41709
lfoot 8.02272 -9.90467
ltoes 41.2202
1241
root 0.089164 16.6847 8.78777 78.0208 34.1642 -5.45105
lowerback 47.658 1.67736 3.13003
upperback 3.50445 2.63556 -4.4925
thorax -17.8963 0.681621 -8.16785
lowerneck -9.80964 -5.78381 1.32378
upperneck -21.6654 -6.61641 10.0299
head -4.63882 -3.94374 2.99157
rclavicle 6.36111e-015 -9.54166e-015
rhumerus 69.3952 -3.33785 -49.6055
rradius 45.1998
rwrist 46.8007
rhand -35.3094 -47.7013
rfingers 7.12502
rthumb -8.44339 -1157.51
lclavicle 6.36111e-015 -9.54166e-015
lhumerus -126.27 179.931 -134.185
lradius 72.0572
lwrist 11.5007
lhand -50.1011 -55.6987
lfingers 7.12502
lthumb -22.6861 -27.0122
rfemur -75.1061 -9.23027 68.6549
rtibia -2.99435
rfoot -4.21794 12.9184
rtoes 0.385145
lfemur -92.4832 7.52891 -8.58323
ltibia 8.62401
lfoot 8.11395 -10.0182
ltoes 41.8733
